<svg preserveAspectRatio="none" overflow="visible" style="display: block;" width="131" height="148.331" viewBox="0 0 131 148.331" fill="none" xmlns="http://www.w3.org/2000/svg">
<g id="Group">
<path id="Vector" d="M90.1046 111.47C90.3616 111.607 90.6546 111.662 90.9438 111.627C91.233 111.592 91.5046 111.469 91.7217 111.275C91.9388 111.081 92.091 110.825 92.1577 110.541C92.2244 110.258 92.2023 109.96 92.0945 109.69L92.1731 109.298C92.7291 108.779 93.4273 108.438 94.1784 108.319C94.9295 108.199 95.6992 108.307 96.3888 108.627C97.0784 108.948 97.6565 109.467 98.0491 110.119C98.4416 110.77 98.6307 111.524 98.5921 112.283C98.4161 116.566 98.6277 121.19 95.7805 124.643C108.776 114.024 114.702 95.9333 110.733 79.6628C108.786 76.9493 107.878 73.3447 108.75 70.0781C109.846 71.1438 111.983 70.8568 111.656 69.0125C111.481 68.2833 111.3 67.5563 111.125 66.8271C118.609 63.9064 120.564 75.0357 111.698 79.5668C112.417 82.6601 112.811 85.8201 112.873 88.9954C113.874 86.1323 115.54 83.5477 117.735 81.4543C119.86 79.5412 122.669 78.4161 125.283 77.1327C128.464 75.5667 131.994 78.6716 130.742 81.9857C128.624 81.7148 127.126 84.2455 129.047 85.6055C125.673 91.273 119.202 94.8761 112.628 94.9317C111.963 101.399 109.928 107.65 106.657 113.268C110.856 106.883 118.984 108.721 125.407 108.449C125.833 108.395 126.266 108.467 126.652 108.655C127.038 108.843 127.362 109.139 127.582 109.508C127.803 109.876 127.912 110.301 127.895 110.73C127.879 111.159 127.738 111.574 127.489 111.925C126.644 111.875 125.796 111.91 124.958 112.028C124.564 112.086 124.197 112.265 123.909 112.54C123.62 112.815 123.424 113.172 123.346 113.563C123.269 113.954 123.314 114.359 123.476 114.724C123.638 115.088 123.909 115.393 124.251 115.597C118.616 120.763 109.885 121.873 103.033 118.577C101.007 121.129 98.7208 123.464 96.2121 125.543L86.0245 120.687C86.0419 120.557 86.0647 120.424 86.0858 120.295C87.0006 120.803 87.9742 121.198 88.9849 121.47C87.8982 117.327 86.6871 114.9 90.1046 111.47Z" fill="#F2F2F2"/>
<path id="Vector_2" d="M72.1033 101.668C71.9171 101.892 71.6665 102.053 71.3854 102.13C71.1043 102.207 70.8063 102.196 70.5319 102.098C70.2575 102 70.0198 101.82 69.8511 101.582C69.6825 101.345 69.5909 101.061 69.5889 100.769L69.3685 100.436C68.6578 100.165 67.8823 100.112 67.1416 100.285C66.4008 100.457 65.7285 100.847 65.2108 101.405C64.6932 101.962 64.3537 102.661 64.2359 103.412C64.1182 104.164 64.2275 104.933 64.5499 105.622C66.3288 109.523 67.8764 113.884 71.8161 116.008C55.7751 111.077 43.4637 96.5585 41.0014 79.993C41.7815 76.7455 41.2629 73.0643 39.2215 70.3684C38.6087 71.7688 36.5222 72.3095 36.1286 70.4776C36.0157 69.7359 35.9094 68.9943 35.7965 68.2526C27.763 68.3709 30.1511 79.4145 40.0714 80.2674C40.5724 83.4037 41.3998 86.479 42.5403 89.4433C40.5334 87.1692 38.0152 85.404 35.193 84.2931C32.5034 83.3228 29.4771 83.3406 26.5713 83.1379C23.0349 82.8873 20.9368 87.0941 23.3468 89.6912C25.2056 88.6415 27.5477 90.4204 26.2811 92.4047C31.5454 96.3807 38.8966 97.276 45.0063 94.8492C48.0614 100.588 52.3046 105.609 57.4529 109.579C51.1543 105.248 44.3205 110.017 38.269 112.188C37.8539 112.299 37.48 112.528 37.1931 112.848C36.9061 113.168 36.7185 113.564 36.653 113.989C36.5876 114.414 36.6472 114.848 36.8245 115.24C37.0019 115.631 37.2893 115.962 37.6518 116.193C38.4158 115.828 39.2143 115.54 40.0354 115.333C40.4226 115.238 40.8295 115.265 41.2005 115.411C41.5714 115.557 41.8882 115.814 42.1074 116.147C42.3266 116.48 42.4375 116.872 42.4249 117.27C42.4123 117.669 42.2768 118.053 42.037 118.372C49.2039 121.03 57.7088 118.765 62.8119 113.128C65.6509 114.727 68.6484 116.027 71.7562 117.007L79.3596 108.666C79.2941 108.552 79.2231 108.438 79.1556 108.326C78.5004 109.143 77.7476 109.875 76.9142 110.509C76.3579 106.262 76.5641 103.557 72.1044 101.668L72.1033 101.668Z" fill="#F2F2F2"/>
<path id="Vector_3" d="M79.9679 55.5996C74.0798 55.5996 70.886 54.8014 69.7702 53.0975C68.786 51.5942 69.4457 49.6106 70.2098 47.3139C70.7588 45.6637 71.3813 43.792 71.3813 41.9403C71.3813 32.9337 75.4974 28.3668 83.6166 28.3668C87.656 28.3668 91.9934 30.7473 95.2188 34.7348C98.1511 38.3598 99.6118 42.6982 99.2265 46.6383C98.9113 49.8691 97.555 51.9937 94.9604 53.325L94.8085 53.4029L94.7653 53.2237C94.5463 52.3075 94.1679 51.4369 93.6475 50.6517C93.5994 51.8541 93.3251 53.0367 92.8389 54.1375L92.8113 54.1994L92.7514 54.2179C89.8148 55.145 86.3298 55.3972 83.6218 55.5123C82.3043 55.5703 81.0863 55.5994 79.9679 55.5996Z" fill="#090814"/>
<path id="Vector_4" d="M81.5727 64.2267C81.347 63.5635 80.9664 62.9635 80.4624 62.4768C79.9585 61.99 79.3457 61.6305 78.675 61.4279C78.0042 61.2254 77.2949 61.1857 76.6057 61.3122C75.9166 61.4387 75.2676 61.7276 74.7124 62.1551L55.3442 73.7343L49.2838 58.9469C49.7958 58.1958 50.0567 57.3019 50.0292 56.3934C50.0017 55.4848 49.6872 54.6083 49.1308 53.8896C48.5743 53.1708 47.8046 52.6468 46.9319 52.3925C46.0592 52.1383 45.1284 52.167 44.273 52.4745C43.4176 52.782 42.6816 53.3525 42.1705 54.1042C41.6594 54.8558 41.3994 55.75 41.428 56.6585C41.4565 57.5671 41.772 58.4432 42.3292 59.1613C42.8865 59.8795 43.6569 60.4027 44.5299 60.6559C44.9035 64.9204 46.9793 83.9795 54.201 83.2866C60.2712 82.7042 75.3458 72.6649 80.029 69.1839C80.7779 68.6275 81.3309 67.8477 81.6083 66.9568C81.8858 66.066 81.8733 65.1101 81.5727 64.2267Z" fill="#ED9DA0"/>
<path id="Vector_5" d="M96.1686 148.331H79.3119L76.4851 134.354L75.5675 148.331H59.9096C59.9157 137.355 60.4875 126.386 61.6226 115.469L61.8168 114.808L62.1234 113.752L62.3176 113.088L65.5577 101.959L65.8135 101.076H85.3254C86.4481 102.131 87.4836 103.274 88.4218 104.496C88.7396 104.901 89.0708 105.34 89.4119 105.813C89.6481 106.147 89.8929 106.499 90.1376 106.867C92.3118 110.104 93.9369 113.677 94.9474 117.443V117.446C95.119 118.09 95.2709 118.749 95.4032 119.424V119.426C95.5213 120.025 95.6257 120.633 95.7069 121.255C95.7688 121.707 95.8222 122.166 95.8615 122.63C96.096 125.201 96.0138 127.792 95.6168 130.343L96.1686 148.331Z" fill="#090814"/>
<path id="Vector_6" d="M6.7942 20.5308C7.88895 20.107 8.53743 19.1461 8.24262 18.3845C7.9478 17.6229 6.82134 17.3491 5.72658 17.7729C4.63183 18.1967 3.98334 19.1576 4.27816 19.9192C4.57297 20.6808 5.69944 20.9546 6.7942 20.5308Z" fill="#E6E6E6"/>
<path id="Vector_7" d="M20.5776 18.7625C21.6723 18.3387 22.3208 17.3778 22.026 16.6162C21.7312 15.8546 20.6047 15.5808 19.51 16.0046C18.4152 16.4284 17.7667 17.3893 18.0616 18.1509C18.3564 18.9125 19.4828 19.1863 20.5776 18.7625Z" fill="#1b998b"/>
<path id="Vector_8" d="M5.59881 32.2904C6.69357 31.8666 7.34205 30.9056 7.04723 30.1441C6.75242 29.3825 5.62595 29.1087 4.53119 29.5325C3.43644 29.9563 2.78796 30.9172 3.08277 31.6788C3.37759 32.4403 4.50405 32.7142 5.59881 32.2904Z" fill="#FF6584"/>
<path id="Vector_9" d="M1.60902 37.4771C2.11119 37.3584 2.37994 36.677 2.20931 35.9551C2.03867 35.2332 1.49326 34.7443 0.991097 34.863C0.488932 34.9817 0.220175 35.6631 0.39081 36.385C0.561445 37.1068 1.10686 37.5958 1.60902 37.4771Z" fill="#1b998b"/>
<path id="Vector_10" d="M1.52717 46.2592C2.02934 46.1405 2.2981 45.4591 2.12746 44.7372C1.95683 44.0153 1.41141 43.5264 0.909249 43.6451C0.407085 43.7638 0.138327 44.4452 0.308962 45.1671C0.479598 45.8889 1.02501 46.3779 1.52717 46.2592Z" fill="#3F3D56"/>
<path id="Vector_11" d="M13.6248 28.0694C14.1269 27.9507 14.3957 27.2693 14.2251 26.5475C14.0544 25.8256 13.509 25.3366 13.0069 25.4553C12.5047 25.574 12.2359 26.2555 12.4066 26.9773C12.5772 27.6992 13.1226 28.1881 13.6248 28.0694Z" fill="#E6E6E6"/>
<path id="Vector_12" d="M6.36512 26.3066C6.86728 26.1879 7.13604 25.5065 6.9654 24.7846C6.79477 24.0628 6.24936 23.5738 5.74719 23.6925C5.24503 23.8112 4.97627 24.4926 5.14691 25.2145C5.31754 25.9364 5.86295 26.4253 6.36512 26.3066Z" fill="#FF6584"/>
<path id="Vector_13" d="M14.0595 18.2199C14.5616 18.1012 14.8304 17.4198 14.6598 16.6979C14.4891 15.976 13.9437 15.4871 13.4415 15.6058C12.9394 15.7245 12.6706 16.4059 12.8413 17.1278C13.0119 17.8496 13.5573 18.3386 14.0595 18.2199Z" fill="#3F3D56"/>
<path id="Vector_14" d="M17.6393 79.0026C18.1686 78.3807 17.873 77.2598 16.9791 76.4989C16.0852 75.738 14.9314 75.6253 14.4021 76.2471C13.8727 76.869 14.1683 77.99 15.0622 78.7509C15.9562 79.5118 17.1099 79.6245 17.6393 79.0026Z" fill="#E6E6E6"/>
<path id="Vector_15" d="M9.52192 67.7235C10.0513 67.1016 9.75568 65.9806 8.86175 65.2197C7.96782 64.4588 6.81404 64.3461 6.28471 64.968C5.75538 65.5899 6.05095 66.7108 6.94488 67.4717C7.83882 68.2326 8.9926 68.3453 9.52192 67.7235Z" fill="#1b998b"/>
<path id="Vector_16" d="M28.5497 74.4542C29.0791 73.8324 28.7835 72.7114 27.8896 71.9505C26.9956 71.1896 25.8419 71.0769 25.3125 71.6988C24.7832 72.3206 25.0788 73.4416 25.9727 74.2025C26.8666 74.9634 28.0204 75.0761 28.5497 74.4542Z" fill="#FF6584"/>
<path id="Vector_17" d="M33.97 74.5785C34.5234 74.0844 34.6934 73.3718 34.3497 72.9868C34.006 72.6018 33.2787 72.6902 32.7252 73.1843C32.1718 73.6784 32.0018 74.391 32.3455 74.7761C32.6892 75.1611 33.4165 75.0726 33.97 74.5785Z" fill="#1b998b"/>
<path id="Vector_18" d="M41.7317 70.469C42.2852 69.9749 42.4552 69.2622 42.1115 68.8772C41.7677 68.4922 41.0404 68.5806 40.487 69.0747C39.9335 69.5688 39.7635 70.2815 40.1072 70.6665C40.451 71.0515 41.1783 70.9631 41.7317 70.469Z" fill="#3F3D56"/>
<path id="Vector_19" d="M19.9761 68.4919C20.5296 67.9978 20.6996 67.2851 20.3559 66.9001C20.0121 66.5151 19.2848 66.6036 18.7314 67.0977C18.1779 67.5918 18.0079 68.3044 18.3516 68.6894C18.6954 69.0744 19.4227 68.986 19.9761 68.4919Z" fill="#E6E6E6"/>
<path id="Vector_20" d="M21.8827 75.7148C22.4361 75.2207 22.6061 74.508 22.2624 74.123C21.9187 73.738 21.1914 73.8264 20.6379 74.3205C20.0845 74.8146 19.9145 75.5273 20.2582 75.9123C20.6019 76.2973 21.3292 76.2089 21.8827 75.7148Z" fill="#FF6584"/>
<path id="Vector_21" d="M11.107 72.7992C11.6605 72.3051 11.8305 71.5925 11.4868 71.2074C11.143 70.8224 10.4157 70.9109 9.86228 71.405C9.30882 71.8991 9.1388 72.6117 9.48253 72.9967C9.82625 73.3817 10.5536 73.2933 11.107 72.7992Z" fill="#3F3D56"/>
<path id="Vector_22" d="M72.1743 6.66488C72.9071 6.30448 73.0812 5.15835 72.5631 4.10493C72.045 3.05151 71.031 2.48971 70.2982 2.85011C69.5654 3.21051 69.3913 4.35664 69.9094 5.41005C70.4274 6.46347 71.4415 7.02528 72.1743 6.66488Z" fill="#E6E6E6"/>
<path id="Vector_23" d="M75.1435 20.2395C75.8763 19.8791 76.0504 18.733 75.5323 17.6796C75.0143 16.6262 74.0002 16.0644 73.2674 16.4248C72.5346 16.7852 72.3605 17.9313 72.8786 18.9847C73.3966 20.0381 74.4107 20.5999 75.1435 20.2395Z" fill="#3F3D56"/>
<path id="Vector_24" d="M60.3559 6.50393C61.0887 6.14353 61.2628 4.99741 60.7447 3.94399C60.2267 2.89057 59.2126 2.32877 58.4798 2.68917C57.747 3.04957 57.5729 4.19569 58.091 5.24911C58.6091 6.30253 59.6231 6.86433 60.3559 6.50393Z" fill="#1b998b"/>
<path id="Vector_25" d="M54.1425 2.19697C54.8467 1.9635 55.2858 1.3771 55.1234 0.887226C54.961 0.397351 54.2585 0.189498 53.5543 0.422976C52.8501 0.656453 52.4109 1.24285 52.5733 1.73272C52.7357 2.2226 53.4383 2.43045 54.1425 2.19697Z" fill="#E6E6E6"/>
<path id="Vector_26" d="M45.3875 2.88477C46.0917 2.65129 46.5309 2.0649 46.3685 1.57502C46.2061 1.08514 45.5035 0.877292 44.7994 1.11077C44.0952 1.34425 43.656 1.93064 43.8184 2.42052C43.9808 2.91039 44.6833 3.11824 45.3875 2.88477Z" fill="#3F3D56"/>
<path id="Vector_27" d="M64.5673 13.342C65.2715 13.1085 65.7107 12.5221 65.5483 12.0322C65.3859 11.5424 64.6834 11.3345 63.9792 11.568C63.275 11.8015 62.8358 12.3879 62.9982 12.8777C63.1606 13.3676 63.8632 13.5755 64.5673 13.342Z" fill="#E6E6E6"/>
<path id="Vector_28" d="M65.6871 5.95577C66.3913 5.72229 66.8305 5.1359 66.6681 4.64602C66.5056 4.15615 65.8031 3.94829 65.0989 4.18177C64.3947 4.41525 63.9555 5.00164 64.1179 5.49152C64.2803 5.98139 64.9829 6.18924 65.6871 5.95577Z" fill="#FF6584"/>
<path id="Vector_29" d="M77.4839 52.2862C75.4909 51.3308 73.8776 49.7323 72.9038 47.7482C71.93 45.7641 71.6525 43.51 72.116 41.349C72.5795 39.188 73.7569 37.2459 75.4587 35.8356C77.1605 34.4254 79.2874 33.629 81.4969 33.5749C83.7064 33.5209 85.8698 34.2121 87.6386 35.5374C89.4073 36.8627 90.6784 38.7449 91.2471 40.8806C91.8157 43.0164 91.6489 45.2814 90.7733 47.3108C89.8978 49.3401 88.3646 51.0157 86.4208 52.0675L86.1365 56.1651L77.1856 56.5383L77.4839 52.2862Z" fill="#ED9DA0"/>
<path id="Vector_30" d="M74.4172 12.9121C75.1214 12.6786 75.5606 12.0922 75.3982 11.6024C75.2358 11.1125 74.5333 10.9046 73.8291 11.1381C73.1249 11.3716 72.6857 11.958 72.8481 12.4479C73.0105 12.9377 73.7131 13.1456 74.4172 12.9121Z" fill="#1b998b"/>
<path id="Vector_31" d="M77.1205 55.1749L86.4071 54.6966L90.7203 61.5121C90.7203 61.5121 98.836 62.869 98.2735 72.4329C97.7109 81.9969 90.7203 90.7195 90.7203 90.7195C90.7203 90.7195 90.4363 95.5535 90.7203 99.1077C91.0044 102.662 89.5354 104.605 89.5354 104.605L65.6457 102.289C65.6457 102.289 65.3164 100.878 65.6457 96.8596C65.975 92.8411 66.9621 86.2154 66.9621 86.2154C66.9621 86.2154 60.8572 77.0438 67.8654 70.1359L70.6787 65.3543L73.8259 61.5146L77.1205 55.1749Z" fill="#1b998b"/>
<path id="Vector_32" d="M80.4194 42.8142C79.5715 42.8142 78.724 42.7903 77.877 42.7424L77.7265 42.7339L77.7463 42.5837C77.8711 41.6444 77.8008 40.6895 77.54 39.7786C77.0969 40.8158 76.4378 41.7466 75.6067 42.509L75.5597 42.552L75.4965 42.5451C73.1961 42.2935 70.9167 41.8778 68.6756 41.3012L68.5897 41.2791L68.5727 41.1924C68.405 40.3704 68.3181 39.5341 68.3131 38.6952C68.3131 36.075 69.2631 33.8695 70.9882 32.4852C72.8659 30.9784 75.5573 30.515 78.5697 31.1797H88.2023C89.2613 31.1809 90.2765 31.6021 91.0253 32.3509C91.7741 33.0997 92.1953 34.1149 92.1965 35.1739V41.2739L92.0913 41.3014C88.2814 42.3026 84.3589 42.8112 80.4196 42.8145L80.4194 42.8142Z" fill="#090814"/>
<path id="Vector_33" d="M13.2751 31.8692C12.8438 32.0269 12.4928 32.3492 12.2989 32.7654C12.105 33.1816 12.0842 33.6578 12.241 34.0893L22.6323 62.6013C22.79 63.0325 23.1123 63.3836 23.5284 63.5774C23.9446 63.7713 24.4207 63.7921 24.8522 63.6354L65.1823 48.9374C65.6135 48.7797 65.9646 48.4573 66.1584 48.0411C66.3523 47.6249 66.3731 47.1488 66.2163 46.7172L55.825 18.2043C55.6674 17.7731 55.3451 17.422 54.9289 17.2282C54.5127 17.0343 54.0367 17.0134 53.6051 17.17L13.2751 31.8692Z" fill="#090814"/>
<path id="Vector_34" d="M50.1728 52.8355L25.4866 61.8323C25.0222 62.001 24.5098 61.9786 24.0619 61.7701C23.614 61.5615 23.267 61.1838 23.0972 60.7198L13.6727 34.8586C13.504 34.3942 13.5264 33.8819 13.7349 33.4339C13.9435 32.986 14.3212 32.6391 14.7852 32.4692L52.8361 18.6018C53.3005 18.4331 53.8129 18.4555 54.2608 18.6641C54.7088 18.8726 55.0557 19.2503 55.2255 19.7143L59.7794 32.2098C61.2357 36.2191 61.0421 40.6424 59.2411 44.5091C57.4401 48.3758 54.1789 51.3703 50.1728 52.8355Z" fill="#E6E6E6"/>
<path id="Vector_35" d="M32.4097 36.054L26.5432 38.192C26.4693 38.2204 26.3905 38.2338 26.3113 38.2314C26.2322 38.229 26.1543 38.2108 26.0822 38.178C26.0102 38.1452 25.9453 38.0983 25.8916 38.0402C25.8378 37.9821 25.7962 37.9138 25.7691 37.8394C25.742 37.765 25.73 37.6859 25.7338 37.6068C25.7376 37.5277 25.7571 37.4502 25.7912 37.3787C25.8253 37.3072 25.8733 37.2432 25.9324 37.1905C25.9914 37.1378 26.0604 37.0974 26.1353 37.0716L32.0012 34.9343C32.149 34.8834 32.3109 34.8926 32.452 34.9599C32.5931 35.0272 32.7021 35.1472 32.7556 35.2941C32.8091 35.441 32.8028 35.6031 32.7379 35.7453C32.6731 35.8876 32.5551 35.9987 32.4091 36.0548L32.4097 36.054Z" fill="#1b998b"/>
<path id="Vector_36" d="M46.3947 33.5527L27.3782 40.4833C27.3043 40.5117 27.2254 40.5251 27.1463 40.5227C27.0671 40.5202 26.9893 40.5021 26.9172 40.4693C26.8451 40.4364 26.7803 40.3896 26.7266 40.3314C26.6728 40.2733 26.6312 40.205 26.6041 40.1306C26.577 40.0562 26.565 39.9772 26.5688 39.8981C26.5726 39.819 26.5921 39.7414 26.6262 39.6699C26.6603 39.5985 26.7083 39.5345 26.7673 39.4818C26.8264 39.429 26.8954 39.3886 26.9703 39.3628L45.9864 32.4317C46.0603 32.4033 46.1392 32.39 46.2183 32.3924C46.2975 32.3948 46.3753 32.4129 46.4474 32.4457C46.5195 32.4786 46.5843 32.5254 46.638 32.5836C46.6918 32.6417 46.7334 32.71 46.7605 32.7844C46.7876 32.8588 46.7996 32.9379 46.7958 33.017C46.792 33.096 46.7725 33.1736 46.7384 33.2451C46.7043 33.3165 46.6563 33.3805 46.5973 33.4332C46.5382 33.486 46.4692 33.5264 46.3943 33.5522L46.3947 33.5527Z" fill="#1b998b"/>
<path id="Vector_37" d="M47.3535 36.1835L28.337 43.1133C28.2631 43.1417 28.1842 43.1551 28.1051 43.1527C28.0259 43.1503 27.948 43.1322 27.876 43.0993C27.8039 43.0665 27.7391 43.0197 27.6854 42.9615C27.6316 42.9034 27.59 42.8351 27.5629 42.7607C27.5358 42.6863 27.5238 42.6072 27.5276 42.5281C27.5314 42.449 27.5509 42.3715 27.585 42.3C27.6191 42.2285 27.667 42.1646 27.7261 42.1118C27.7852 42.0591 27.8542 42.0187 27.9291 41.9929L46.9456 35.0625C47.0195 35.0341 47.0983 35.0208 47.1775 35.0232C47.2566 35.0256 47.3345 35.0437 47.4066 35.0766C47.4786 35.1094 47.5434 35.1562 47.5972 35.2144C47.6509 35.2725 47.6926 35.3408 47.7197 35.4152C47.7468 35.4896 47.7587 35.5687 47.755 35.6478C47.7512 35.7269 47.7316 35.8044 47.6976 35.8759C47.6635 35.9474 47.6155 36.0113 47.5564 36.0641C47.4973 36.1168 47.4283 36.1572 47.3535 36.183V36.1835Z" fill="#1b998b"/>
<path id="Vector_38" d="M48.3125 38.8129L29.296 45.7434C29.1482 45.7943 28.9863 45.7851 28.8452 45.7178C28.7041 45.6505 28.5951 45.5305 28.5416 45.3836C28.4881 45.2367 28.4945 45.0747 28.5593 44.9324C28.6241 44.7901 28.7422 44.679 28.8881 44.623L47.9042 37.6917C48.052 37.6408 48.2139 37.65 48.355 37.7173C48.4961 37.7846 48.6052 37.9046 48.6586 38.0515C48.7121 38.1984 48.7058 38.3604 48.641 38.5027C48.5762 38.645 48.4581 38.7561 48.3121 38.8121L48.3125 38.8129Z" fill="#1b998b"/>
<path id="Vector_39" d="M49.271 41.4433L30.2546 48.3733C30.1806 48.4017 30.1018 48.4151 30.0226 48.4127C29.9435 48.4103 29.8656 48.3921 29.7935 48.3593C29.7215 48.3265 29.6567 48.2796 29.6029 48.2215C29.5492 48.1633 29.5075 48.0951 29.4804 48.0207C29.4533 47.9462 29.4414 47.8672 29.4451 47.7881C29.4489 47.709 29.4685 47.6314 29.5025 47.56C29.5366 47.4885 29.5846 47.4245 29.6437 47.3718C29.7028 47.3191 29.7718 47.2786 29.8466 47.2529L48.8631 40.3225C49.0109 40.2716 49.1728 40.2808 49.3139 40.3481C49.455 40.4154 49.5641 40.5354 49.6175 40.6823C49.671 40.8292 49.6647 40.9912 49.5999 41.1335C49.5351 41.2758 49.417 41.3869 49.271 41.4429V41.4433Z" fill="#1b998b"/>
<path id="Vector_40" d="M106.797 49.8755L97.7608 70.4094C97.3166 71.4637 96.4757 72.3011 95.4196 72.7409C94.3634 73.1807 93.1767 73.1876 92.1155 72.7601C91.5665 72.5389 91.0684 72.2083 90.6514 71.7883C90.2343 71.3683 89.9072 70.8678 89.69 70.3173C89.4727 69.7667 89.3699 69.1777 89.3877 68.5862C89.4055 67.9946 89.5436 67.4128 89.7936 66.8764L99.6909 48.8913L106.09 33.0693C105.537 32.5177 105.168 31.8093 105.031 31.0403C104.895 30.2712 104.999 29.4789 105.329 28.7708C105.658 28.0628 106.198 27.4735 106.874 27.0829C107.551 26.6923 108.331 26.5193 109.109 26.5875C109.887 26.6558 110.625 26.9619 111.223 27.4642C111.821 27.9666 112.25 28.6409 112.451 29.3955C112.653 30.1501 112.617 30.9484 112.349 31.682C112.081 32.4156 111.594 33.0489 110.953 33.4958L106.797 49.8755Z" fill="#ED9DA0"/>
</g>
</svg>
